<svg width="25" height="24" viewBox="0 0 25 24" fill="none" xmlns="http://www.w3.org/2000/svg">
<path d="M12.7604 4.74709C12.6906 4.68033 12.5978 4.64307 12.5012 4.64307C12.4046 4.64307 12.3118 4.68033 12.242 4.74709L3.6123 12.991C3.57566 13.0261 3.5465 13.0682 3.5266 13.1148C3.5067 13.1615 3.49647 13.2117 3.49652 13.2624L3.49512 20.9996C3.49512 21.3974 3.65315 21.7789 3.93446 22.0602C4.21576 22.3416 4.59729 22.4996 4.99512 22.4996H9.49981C9.69872 22.4996 9.88948 22.4206 10.0301 22.2799C10.1708 22.1393 10.2498 21.9485 10.2498 21.7496V15.3746C10.2498 15.2751 10.2893 15.1797 10.3596 15.1094C10.43 15.0391 10.5254 14.9996 10.6248 14.9996H14.3748C14.4743 14.9996 14.5696 15.0391 14.64 15.1094C14.7103 15.1797 14.7498 15.2751 14.7498 15.3746V21.7496C14.7498 21.9485 14.8288 22.1393 14.9695 22.2799C15.1101 22.4206 15.3009 22.4996 15.4998 22.4996H20.0026C20.4004 22.4996 20.782 22.3416 21.0633 22.0602C21.3446 21.7789 21.5026 21.3974 21.5026 20.9996V13.2624C21.5027 13.2117 21.4924 13.1615 21.4725 13.1148C21.4526 13.0682 21.4235 13.0261 21.3868 12.991L12.7604 4.74709Z" fill="#B3B3B3"/>
<path d="M23.5113 11.4461L20.0051 8.09168V3.00153C20.0051 2.80261 19.926 2.61185 19.7854 2.4712C19.6447 2.33054 19.454 2.25153 19.2551 2.25153H17.0051C16.8061 2.25153 16.6154 2.33054 16.4747 2.4712C16.3341 2.61185 16.2551 2.80261 16.2551 3.00153V4.50153L13.5401 1.90559C13.286 1.64871 12.9082 1.50153 12.4999 1.50153C12.093 1.50153 11.7161 1.64871 11.4621 1.90606L1.49177 11.4451C1.20021 11.7264 1.16365 12.189 1.42896 12.4937C1.49558 12.5706 1.57716 12.6332 1.66872 12.6775C1.76029 12.7219 1.85993 12.7472 1.96157 12.7519C2.06322 12.7565 2.16475 12.7404 2.25998 12.7046C2.35521 12.6687 2.44216 12.6139 2.51552 12.5434L12.2421 3.24903C12.3119 3.18227 12.4047 3.14501 12.5013 3.14501C12.5979 3.14501 12.6907 3.18227 12.7605 3.24903L22.488 12.5434C22.6313 12.6808 22.8232 12.7558 23.0217 12.7519C23.2202 12.7481 23.4091 12.6657 23.5469 12.5228C23.8347 12.2247 23.8108 11.7325 23.5113 11.4461Z" fill="#B3B3B3"/>
</svg>
