<svg width="21" height="22" viewBox="0 0 21 22" fill="none" xmlns="http://www.w3.org/2000/svg">
<path d="M14.0923 2.0289C13.1801 1.04405 11.906 0.501709 10.4998 0.501709C9.08603 0.501709 7.80775 1.04077 6.89978 2.01952C5.98197 3.00905 5.53478 4.3539 5.63978 5.80609C5.84791 8.67109 8.02806 11.0017 10.4998 11.0017C12.9715 11.0017 15.1479 8.67155 15.3593 5.80702C15.4657 4.36796 15.0157 3.02593 14.0923 2.0289ZM18.7498 21.5017H2.24978C2.03381 21.5045 1.81993 21.4592 1.6237 21.3689C1.42747 21.2787 1.25383 21.1458 1.1154 20.98C0.810717 20.6158 0.687905 20.1184 0.778842 19.6155C1.17447 17.4208 2.40916 15.5772 4.34978 14.283C6.07384 13.1341 8.25775 12.5017 10.4998 12.5017C12.7418 12.5017 14.9257 13.1345 16.6498 14.283C18.5904 15.5767 19.8251 17.4203 20.2207 19.615C20.3117 20.118 20.1888 20.6153 19.8842 20.9795C19.7458 21.1454 19.5722 21.2784 19.3759 21.3687C19.1797 21.459 18.9658 21.5045 18.7498 21.5017Z" fill="#B3B3B3"/>
</svg>
