<svg width="21" height="20" viewBox="0 0 21 20" fill="none" xmlns="http://www.w3.org/2000/svg">
<path d="M10.5 0.255371C5.12391 0.255371 0.75 4.62975 0.75 10.0054C0.75 15.3894 5.11594 19.7554 10.5 19.7554C15.8761 19.7554 20.25 15.3815 20.25 10.0054C20.25 4.62084 15.8845 0.255371 10.5 0.255371ZM10.5 14.9272C9.33139 14.9272 8.21064 14.463 7.38431 13.6367C6.55798 12.8104 6.09375 11.6896 6.09375 10.521C6.09375 9.35239 6.55798 8.23164 7.38431 7.40531C8.21064 6.57898 9.33139 6.11475 10.5 6.11475H10.6973L10.0359 5.45381C9.91286 5.33073 9.84372 5.1638 9.84372 4.98975C9.84372 4.81569 9.91286 4.64876 10.0359 4.52568C10.159 4.40261 10.3259 4.33346 10.5 4.33346C10.6741 4.33346 10.841 4.40261 10.9641 4.52568L12.8391 6.40068C12.9 6.46162 12.9484 6.53397 12.9813 6.6136C13.0143 6.69322 13.0313 6.77856 13.0313 6.86475C13.0313 6.95093 13.0143 7.03627 12.9813 7.1159C12.9484 7.19552 12.9 7.26787 12.8391 7.32881L10.9641 9.20381C10.841 9.32689 10.6741 9.39603 10.5 9.39603C10.3259 9.39603 10.159 9.32689 10.0359 9.20381C9.91286 9.08073 9.84372 8.9138 9.84372 8.73975C9.84372 8.56569 9.91286 8.39876 10.0359 8.27568L10.8797 7.43193C10.7681 7.42725 10.6406 7.42725 10.5 7.42725C9.88811 7.42725 9.28997 7.60869 8.78121 7.94864C8.27244 8.28858 7.87591 8.77176 7.64175 9.33707C7.40759 9.90238 7.34632 10.5244 7.4657 11.1246C7.58507 11.7247 7.87972 12.2759 8.31239 12.7086C8.74506 13.1413 9.29631 13.4359 9.89644 13.5553C10.4966 13.6747 11.1186 13.6134 11.6839 13.3792C12.2492 13.1451 12.7324 12.7486 13.0724 12.2398C13.4123 11.731 13.5938 11.1329 13.5938 10.521C13.5938 10.3469 13.6629 10.18 13.786 10.057C13.909 9.93389 14.076 9.86475 14.25 9.86475C14.424 9.86475 14.591 9.93389 14.714 10.057C14.8371 10.18 14.9063 10.3469 14.9063 10.521C14.9049 11.6892 14.4402 12.8091 13.6142 13.6352C12.7881 14.4612 11.6682 14.9259 10.5 14.9272Z" fill="#B3B3B3"/>
</svg>
