<svg width="21" height="20" viewBox="0 0 21 20" fill="none" xmlns="http://www.w3.org/2000/svg">
<path d="M19.9073 17.7515L15.4969 13.341C16.5587 11.9274 17.1319 10.2068 17.13 8.43881C17.13 3.92287 13.4559 0.24881 8.94 0.24881C4.42406 0.24881 0.75 3.92287 0.75 8.43881C0.75 12.9548 4.42406 16.6288 8.94 16.6288C10.708 16.6307 12.4286 16.0575 13.8422 14.9957L18.2527 19.4062C18.4759 19.6057 18.7671 19.7123 19.0664 19.7039C19.3658 19.6955 19.6506 19.5729 19.8623 19.3611C20.074 19.1494 20.1967 18.8646 20.2051 18.5653C20.2135 18.2659 20.1069 17.9747 19.9073 17.7515ZM3.09 8.43881C3.09 7.28179 3.4331 6.15075 4.0759 5.18873C4.71871 4.2267 5.63236 3.47689 6.7013 3.03412C7.77025 2.59134 8.94649 2.47549 10.0813 2.70122C11.2161 2.92694 12.2584 3.4841 13.0766 4.30224C13.8947 5.12037 14.4519 6.16274 14.6776 7.29753C14.9033 8.43232 14.7875 9.60856 14.3447 10.6775C13.9019 11.7465 13.1521 12.6601 12.1901 13.3029C11.2281 13.9457 10.097 14.2888 8.94 14.2888C7.38906 14.287 5.90217 13.67 4.80548 12.5733C3.7088 11.4766 3.09186 9.98976 3.09 8.43881Z" fill="#008C8C"/>
</svg>
