<svg width="130" height="141" viewBox="0 0 130 141" fill="none" xmlns="http://www.w3.org/2000/svg">
<path d="M127.079 43.9016C126.152 42.9681 125.049 42.2278 123.834 41.7236C122.619 41.2194 121.316 40.9612 120.001 40.9641H100.001V35.9641C100.001 26.6815 96.3135 17.7791 89.7497 11.2154C83.1859 4.6516 74.2836 0.964111 65.001 0.964111C55.7184 0.964111 46.816 4.6516 40.2522 11.2154C33.6885 17.7791 30.001 26.6815 30.001 35.9641V40.9641H10.001C7.34881 40.9641 4.80527 42.0177 2.92991 43.893C1.05454 45.7684 0.000976563 48.3119 0.000976562 50.9641V118.464C0.000976562 130.652 10.3135 140.964 22.501 140.964H107.501C113.396 140.966 119.058 138.661 123.276 134.542C125.399 132.517 127.089 130.083 128.245 127.387C129.4 124.691 129.998 121.788 130.001 118.855V50.9641C130.005 49.6522 129.749 48.3525 129.247 47.1402C128.746 45.9279 128.009 44.8272 127.079 43.9016V43.9016ZM40.001 35.9641C40.001 29.3337 42.6349 22.9748 47.3233 18.2864C52.0117 13.598 58.3706 10.9641 65.001 10.9641C71.6314 10.9641 77.9902 13.598 82.6787 18.2864C87.3671 22.9748 90.001 29.3337 90.001 35.9641V40.9641H40.001V35.9641Z" fill="#008C8C"/>
</svg>
