<svg width="18" height="18" viewBox="0 0 18 18" fill="none" xmlns="http://www.w3.org/2000/svg">
<path d="M9 0.00247192C4.03125 0.00247192 0 4.03372 0 9.00247C0 13.9712 4.03125 18.0025 9 18.0025C13.9688 18.0025 18 13.9712 18 9.00247C18 4.03372 13.9688 0.00247192 9 0.00247192ZM8.71875 14.2525C8.53333 14.2525 8.35207 14.1975 8.1979 14.0945C8.04373 13.9915 7.92357 13.845 7.85261 13.6737C7.78166 13.5024 7.76309 13.3139 7.79926 13.1321C7.83544 12.9502 7.92473 12.7832 8.05584 12.6521C8.18695 12.5209 8.354 12.4317 8.53585 12.3955C8.71771 12.3593 8.90621 12.3779 9.07752 12.4488C9.24882 12.5198 9.39524 12.64 9.49825 12.7941C9.60127 12.9483 9.65625 13.1296 9.65625 13.315C9.65625 13.5636 9.55748 13.8021 9.38166 13.9779C9.20585 14.1537 8.96739 14.2525 8.71875 14.2525ZM10.2863 9.47122C9.52641 9.98122 9.42188 10.4486 9.42188 10.8775C9.42188 11.0515 9.35274 11.2184 9.22966 11.3415C9.10659 11.4646 8.93967 11.5337 8.76563 11.5337C8.59158 11.5337 8.42466 11.4646 8.30159 11.3415C8.17852 11.2184 8.10938 11.0515 8.10938 10.8775C8.10938 9.85044 8.58188 9.03388 9.55406 8.38091C10.4578 7.77435 10.9688 7.38997 10.9688 6.54482C10.9688 5.97013 10.6406 5.53372 9.96141 5.21075C9.80156 5.13482 9.44578 5.06075 9.00797 5.06591C8.4586 5.07294 8.03203 5.20419 7.70344 5.46857C7.08375 5.96732 7.03125 6.51013 7.03125 6.5181C7.0271 6.60428 7.00601 6.6888 6.96919 6.76682C6.93237 6.84485 6.88054 6.91487 6.81667 6.97287C6.75279 7.03087 6.67811 7.07572 6.5969 7.10486C6.51569 7.134 6.42954 7.14686 6.34336 7.14271C6.25718 7.13855 6.17266 7.11746 6.09463 7.08064C6.0166 7.04383 5.94659 6.992 5.88859 6.92812C5.83059 6.86425 5.78574 6.78957 5.7566 6.70836C5.72746 6.62715 5.7146 6.541 5.71875 6.45482C5.72391 6.34091 5.80313 5.31482 6.87984 4.44857C7.43813 3.9995 8.14828 3.76607 8.98922 3.75575C9.58453 3.74872 10.1438 3.8495 10.523 4.02857C11.6578 4.56528 12.2813 5.46013 12.2813 6.54482C12.2813 8.1306 11.2214 8.84263 10.2863 9.47122Z" fill="#66676E"/>
</svg>
