<svg width="22" height="20" viewBox="0 0 22 20" fill="none" xmlns="http://www.w3.org/2000/svg">
<path d="M21.4217 18.3284L17.203 8.10965C17.1251 7.92094 16.9929 7.7596 16.8232 7.64607C16.6535 7.53255 16.4539 7.47195 16.2498 7.47195C16.0456 7.47195 15.846 7.53255 15.6763 7.64607C15.5067 7.7596 15.3745 7.92094 15.2966 8.10965L11.0778 18.3284C11.0254 18.4537 10.9982 18.5882 10.9978 18.724C10.9975 18.8599 11.024 18.9944 11.0758 19.12C11.1276 19.2456 11.2038 19.3597 11.2998 19.4558C11.3959 19.5518 11.51 19.628 11.6356 19.6798C11.7611 19.7317 11.8957 19.7582 12.0316 19.7579C12.1674 19.7575 12.3019 19.7304 12.4272 19.6779C12.5525 19.6255 12.6662 19.5488 12.7618 19.4523C12.8574 19.3557 12.933 19.2413 12.9842 19.1154L13.8434 17.0346H18.6561L19.5153 19.1154C19.5932 19.3042 19.7254 19.4657 19.8951 19.5792C20.0649 19.6928 20.2645 19.7534 20.4688 19.7534C20.6382 19.7533 20.805 19.7114 20.9545 19.6315C21.1039 19.5516 21.2313 19.4361 21.3255 19.2952C21.4197 19.1543 21.4777 18.9924 21.4944 18.8238C21.5111 18.6552 21.486 18.485 21.4213 18.3284H21.4217ZM14.6952 14.9721L16.25 11.2057L17.8048 14.9721H14.6952ZM11.555 14.0778C11.7152 13.8565 11.7811 13.5806 11.7381 13.3108C11.6951 13.041 11.5468 12.7993 11.3258 12.6387C11.3164 12.6317 10.6227 12.117 9.61532 11.0107C11.4739 8.49449 12.5267 5.63184 12.9561 4.28465H14.4688C14.7423 4.28465 15.0046 4.176 15.198 3.9826C15.3914 3.7892 15.5 3.5269 15.5 3.2534C15.5 2.97989 15.3914 2.71759 15.198 2.52419C15.0046 2.3308 14.7423 2.22215 14.4688 2.22215H9.03125V1.28465C9.03125 1.01114 8.9226 0.74884 8.72921 0.555443C8.53581 0.362046 8.27351 0.253397 8 0.253397C7.7265 0.253397 7.46419 0.362046 7.2708 0.555443C7.0774 0.74884 6.96875 1.01114 6.96875 1.28465V2.22215H1.53125C1.25775 2.22215 0.995443 2.3308 0.802046 2.52419C0.608649 2.71759 0.5 2.97989 0.5 3.2534C0.5 3.5269 0.608649 3.7892 0.802046 3.9826C0.995443 4.176 1.25775 4.28465 1.53125 4.28465H10.7773C10.3311 5.54793 9.50938 7.54246 8.25594 9.36402C6.7836 7.41027 6.23656 6.14605 6.23234 6.13574C6.12456 5.88664 5.92291 5.69008 5.67114 5.58869C5.41937 5.48729 5.13778 5.48925 4.88744 5.59412C4.6371 5.69899 4.43819 5.89833 4.33387 6.1489C4.22955 6.39947 4.22821 6.68107 4.33016 6.93262C4.35734 6.9973 5.01219 8.53715 6.80797 10.8668C6.8511 10.9226 6.89375 10.977 6.93641 11.0314C5.09703 13.1103 3.29234 14.3998 2.53719 14.8161C2.29706 14.947 2.1188 15.168 2.04162 15.4304C1.96444 15.6928 1.99465 15.9751 2.12563 16.2153C2.2566 16.4554 2.47759 16.6337 2.74 16.7108C3.0024 16.788 3.28472 16.7578 3.52484 16.6268C3.62609 16.5715 5.80297 15.3664 8.28875 12.6148C9.34438 13.7436 10.07 14.2761 10.1136 14.307C10.2233 14.3867 10.3476 14.4439 10.4794 14.4755C10.6113 14.5071 10.748 14.5124 10.8819 14.491C11.0158 14.4697 11.1442 14.4222 11.2597 14.3512C11.3751 14.2802 11.4755 14.1871 11.555 14.0773V14.0778Z" fill="#66676E"/>
</svg>
