<svg width="20" height="22" viewBox="0 0 20 22" fill="none" xmlns="http://www.w3.org/2000/svg">
<path d="M17 18.4969V2.37187C17 2.12564 16.9515 1.88183 16.8573 1.65434C16.763 1.42686 16.6249 1.22016 16.4508 1.04605C16.2767 0.871937 16.07 0.733825 15.8425 0.639598C15.615 0.54537 15.3712 0.496872 15.125 0.496872H2.375C1.87772 0.496872 1.40081 0.694416 1.04917 1.04605C0.697544 1.39768 0.5 1.87459 0.5 2.37187V18.8719C0.5 19.5681 0.776562 20.2357 1.26884 20.728C1.76113 21.2203 2.42881 21.4969 3.125 21.4969H19.1961C19.2032 21.4969 19.2102 21.4956 19.2168 21.4929C19.2234 21.4902 19.2293 21.4862 19.2344 21.4812C19.2394 21.4762 19.2433 21.4702 19.246 21.4637C19.2487 21.4571 19.2501 21.4501 19.25 21.443C19.25 21.4312 19.2461 21.4197 19.2388 21.4104C19.2316 21.4011 19.2216 21.3944 19.2102 21.3914C18.5757 21.2174 18.0159 20.8399 17.6167 20.3171C17.2174 19.7942 17.0008 19.1547 17 18.4969ZM3.5 4.99687C3.5 4.79796 3.57902 4.60719 3.71967 4.46654C3.86032 4.32589 4.05109 4.24687 4.25 4.24687H7.25C7.44891 4.24687 7.63968 4.32589 7.78033 4.46654C7.92098 4.60719 8 4.79796 8 4.99687V7.99687C8 8.19579 7.92098 8.38655 7.78033 8.5272C7.63968 8.66786 7.44891 8.74687 7.25 8.74687H4.25C4.05109 8.74687 3.86032 8.66786 3.71967 8.5272C3.57902 8.38655 3.5 8.19579 3.5 7.99687V4.99687ZM13.25 17.7469H4.27109C3.8675 17.7469 3.52109 17.4366 3.50094 17.033C3.49605 16.9316 3.51181 16.8302 3.54724 16.7351C3.58268 16.6399 3.63707 16.553 3.7071 16.4795C3.77714 16.406 3.86137 16.3475 3.95469 16.3075C4.04801 16.2675 4.14848 16.2469 4.25 16.2469H13.2289C13.6325 16.2469 13.9789 16.5572 13.9991 16.9608C14.0039 17.0622 13.9882 17.1635 13.9528 17.2587C13.9173 17.3538 13.8629 17.4408 13.7929 17.5143C13.7229 17.5878 13.6386 17.6463 13.5453 17.6863C13.452 17.7262 13.3515 17.7469 13.25 17.7469ZM13.25 14.7469H4.27109C3.8675 14.7469 3.52109 14.4366 3.50094 14.033C3.49605 13.9316 3.51181 13.8302 3.54724 13.7351C3.58268 13.6399 3.63707 13.553 3.7071 13.4795C3.77714 13.406 3.86137 13.3475 3.95469 13.3075C4.04801 13.2675 4.14848 13.2469 4.25 13.2469H13.2289C13.6325 13.2469 13.9789 13.5572 13.9991 13.9608C14.0039 14.0622 13.9882 14.1635 13.9528 14.2587C13.9173 14.3538 13.8629 14.4408 13.7929 14.5143C13.7229 14.5878 13.6386 14.6463 13.5453 14.6863C13.452 14.7262 13.3515 14.7469 13.25 14.7469ZM13.25 11.7469H4.27109C3.8675 11.7469 3.52109 11.4366 3.50094 11.033C3.49605 10.9316 3.51181 10.8302 3.54724 10.7351C3.58268 10.6399 3.63707 10.553 3.7071 10.4795C3.77714 10.406 3.86137 10.3475 3.95469 10.3075C4.04801 10.2675 4.14848 10.2469 4.25 10.2469H13.2289C13.6325 10.2469 13.9789 10.5572 13.9991 10.9608C14.0039 11.0622 13.9882 11.1635 13.9528 11.2587C13.9173 11.3538 13.8629 11.4408 13.7929 11.5143C13.7229 11.5878 13.6386 11.6463 13.5453 11.6863C13.452 11.7262 13.3515 11.7469 13.25 11.7469ZM13.25 8.74687H10.2711C9.8675 8.74687 9.52109 8.43656 9.50094 8.03297C9.49605 7.93156 9.51181 7.83022 9.54724 7.73508C9.58268 7.63994 9.63707 7.55299 9.7071 7.47949C9.77714 7.40599 9.86137 7.34747 9.95469 7.30749C10.048 7.2675 10.1485 7.24688 10.25 7.24687H13.2289C13.6325 7.24687 13.9789 7.55718 13.9991 7.96078C14.0039 8.06219 13.9882 8.16353 13.9528 8.25867C13.9173 8.35381 13.8629 8.44076 13.7929 8.51426C13.7229 8.58776 13.6386 8.64627 13.5453 8.68626C13.452 8.72624 13.3515 8.74686 13.25 8.74687ZM13.25 5.74687H10.2711C9.8675 5.74687 9.52109 5.43656 9.50094 5.03297C9.49605 4.93156 9.51181 4.83022 9.54724 4.73508C9.58268 4.63994 9.63707 4.55298 9.7071 4.47949C9.77714 4.40599 9.86137 4.34747 9.95469 4.30749C10.048 4.2675 10.1485 4.24688 10.25 4.24687H13.2289C13.6325 4.24687 13.9789 4.55719 13.9991 4.96078C14.0039 5.06219 13.9882 5.16353 13.9528 5.25867C13.9173 5.35381 13.8629 5.44076 13.7929 5.51426C13.7229 5.58776 13.6386 5.64627 13.5453 5.68626C13.452 5.72624 13.3515 5.74686 13.25 5.74687Z" fill="#666666"/>
</svg>
