<svg width="18" height="22" viewBox="0 0 18 22" fill="none" xmlns="http://www.w3.org/2000/svg">
<path d="M17.6286 15.0015C17.5508 14.9078 17.4744 14.814 17.3994 14.7236C16.3682 13.4762 15.7443 12.7234 15.7443 9.19231C15.7443 7.36419 15.3069 5.86419 14.4449 4.73919C13.8093 3.90809 12.9501 3.27762 11.8176 2.81169C11.803 2.80358 11.79 2.79295 11.7791 2.78028C11.3718 1.41622 10.2571 0.502625 8.9999 0.502625C7.74271 0.502625 6.62849 1.41622 6.22115 2.77887C6.21027 2.79107 6.19744 2.80137 6.18318 2.80934C3.54036 3.89731 2.25599 5.98466 2.25599 9.19091C2.25599 12.7234 1.63302 13.4762 0.600833 14.7222C0.525833 14.8126 0.449427 14.9045 0.371614 15.0001C0.170615 15.2425 0.0432647 15.5374 0.00463615 15.85C-0.0339924 16.1625 0.0177171 16.4795 0.153645 16.7636C0.442864 17.3729 1.05927 17.7512 1.76286 17.7512H16.2421C16.9424 17.7512 17.5546 17.3734 17.8447 16.7668C17.9813 16.4827 18.0335 16.1654 17.9952 15.8526C17.9569 15.5397 17.8297 15.2443 17.6286 15.0015ZM8.9999 21.5026C9.67726 21.5021 10.3418 21.3182 10.9232 20.9705C11.5045 20.6228 11.9809 20.1243 12.3018 19.5278C12.3169 19.4992 12.3244 19.4672 12.3234 19.4349C12.3225 19.4025 12.3133 19.371 12.2966 19.3433C12.2799 19.3156 12.2563 19.2927 12.2281 19.2768C12.2 19.2609 12.1682 19.2526 12.1358 19.2526H5.8649C5.83252 19.2525 5.80066 19.2608 5.77243 19.2766C5.7442 19.2925 5.72055 19.3154 5.7038 19.3431C5.68704 19.3708 5.67775 19.4024 5.67682 19.4347C5.67589 19.4671 5.68335 19.4992 5.69849 19.5278C6.01937 20.1242 6.49567 20.6227 7.0769 20.9704C7.65813 21.3181 8.32262 21.502 8.9999 21.5026Z" fill="#66676E"/>
</svg>
