<svg width="22" height="22" viewBox="0 0 22 22" fill="none" xmlns="http://www.w3.org/2000/svg">
<path d="M21.4561 4.22174C21.4456 4.05412 21.3792 3.89487 21.2674 3.7695C21.1557 3.64414 21.0051 3.55992 20.8397 3.53033C16.8071 2.80752 15.1102 2.24221 11.4685 0.603456C11.1047 0.467987 10.8793 0.470331 10.531 0.603456C6.88926 2.24408 5.19238 2.80658 1.15973 3.53033C0.994405 3.55992 0.843797 3.64414 0.732032 3.7695C0.620268 3.89487 0.553816 4.05412 0.543321 4.22174C0.362853 7.0858 0.746759 9.75299 1.6852 12.1506C2.45255 14.1058 3.58936 15.8948 5.03348 17.4199C7.12738 19.6431 9.4491 20.9411 10.6463 21.4324C10.8733 21.525 11.1276 21.525 11.3546 21.4324C12.6202 20.9205 14.8557 19.6596 16.966 17.4189C18.41 15.8941 19.5468 14.1054 20.3143 12.1506C21.2527 9.75346 21.6366 7.0858 21.4561 4.22174Z" fill="#66676E"/>
</svg>
