<svg width="24" height="22" viewBox="0 0 24 22" fill="none" xmlns="http://www.w3.org/2000/svg">
<path d="M18.4687 21.4978C18.3109 21.4984 18.1568 21.4492 18.0286 21.3571L12 16.9865L5.97139 21.3571C5.84259 21.4505 5.68742 21.5006 5.52832 21.5C5.36921 21.4994 5.21441 21.4483 5.08629 21.3539C4.95818 21.2596 4.86339 21.1269 4.81563 20.9751C4.76787 20.8234 4.76961 20.6603 4.82061 20.5096L7.17186 13.5454L1.07811 9.36651C0.946113 9.27609 0.846491 9.14583 0.793797 8.99476C0.741103 8.8437 0.7381 8.67974 0.785225 8.52684C0.83235 8.37395 0.927135 8.24013 1.05573 8.14494C1.18432 8.04975 1.33999 7.99818 1.49998 7.99776H9.0178L11.2865 1.01572C11.3354 0.864985 11.4308 0.733599 11.559 0.640415C11.6871 0.547232 11.8415 0.49704 12 0.49704C12.1585 0.49704 12.3128 0.547232 12.441 0.640415C12.5692 0.733599 12.6645 0.864985 12.7134 1.01572L14.9822 8.0001H22.5C22.6602 8.00002 22.8162 8.05123 22.9452 8.14624C23.0741 8.24125 23.1693 8.37506 23.2167 8.52807C23.2642 8.68108 23.2613 8.84526 23.2087 8.99656C23.1561 9.14785 23.0564 9.27832 22.9242 9.36885L16.8281 13.5454L19.178 20.5078C19.216 20.6205 19.2267 20.7406 19.2092 20.8583C19.1917 20.976 19.1464 21.0878 19.0771 21.1845C19.0078 21.2813 18.9165 21.3601 18.8107 21.4146C18.7049 21.469 18.5877 21.4975 18.4687 21.4978Z" fill="#66676E"/>
</svg>
